<mxfile host="app.diagrams.net" modified="2023-06-19T02:15:43.591Z" agent="Mozilla/5.0 (Windows NT 10.0; Win64; x64) AppleWebKit/537.36 (KHTML, like Gecko) Chrome/114.0.0.0 Safari/537.36" etag="BnnX-NhEgm-6EztnpFs4" version="21.4.0" type="github">
  <diagram name="Halaman-1" id="6RFknrUBay-33bD9F4Q3">
    <mxGraphModel dx="897" dy="918" grid="1" gridSize="10" guides="1" tooltips="1" connect="1" arrows="1" fold="1" page="1" pageScale="1" pageWidth="1169" pageHeight="827" math="0" shadow="0">
      <root>
        <mxCell id="0" />
        <mxCell id="1" parent="0" />
        <mxCell id="aK8CP3hyJWrEp7VhK_wL-159" value="" style="edgeStyle=orthogonalEdgeStyle;rounded=0;orthogonalLoop=1;jettySize=auto;html=1;" edge="1" parent="1" source="aK8CP3hyJWrEp7VhK_wL-157" target="aK8CP3hyJWrEp7VhK_wL-158">
          <mxGeometry relative="1" as="geometry" />
        </mxCell>
        <mxCell id="aK8CP3hyJWrEp7VhK_wL-157" value="&lt;font style=&quot;font-size: 15px;&quot;&gt;Start&amp;nbsp;&lt;/font&gt;" style="ellipse;whiteSpace=wrap;html=1;" vertex="1" parent="1">
          <mxGeometry x="532.5" y="10" width="120" height="80" as="geometry" />
        </mxCell>
        <mxCell id="aK8CP3hyJWrEp7VhK_wL-161" value="" style="edgeStyle=orthogonalEdgeStyle;rounded=0;orthogonalLoop=1;jettySize=auto;html=1;" edge="1" parent="1" source="aK8CP3hyJWrEp7VhK_wL-158" target="aK8CP3hyJWrEp7VhK_wL-160">
          <mxGeometry relative="1" as="geometry" />
        </mxCell>
        <mxCell id="aK8CP3hyJWrEp7VhK_wL-158" value="&lt;font style=&quot;font-size: 15px;&quot;&gt;Read Data set&lt;/font&gt;" style="shape=parallelogram;perimeter=parallelogramPerimeter;whiteSpace=wrap;html=1;fixedSize=1;" vertex="1" parent="1">
          <mxGeometry x="527.5" y="130" width="130" height="60" as="geometry" />
        </mxCell>
        <mxCell id="aK8CP3hyJWrEp7VhK_wL-163" value="" style="edgeStyle=orthogonalEdgeStyle;rounded=0;orthogonalLoop=1;jettySize=auto;html=1;" edge="1" parent="1" source="aK8CP3hyJWrEp7VhK_wL-160" target="aK8CP3hyJWrEp7VhK_wL-162">
          <mxGeometry relative="1" as="geometry" />
        </mxCell>
        <mxCell id="aK8CP3hyJWrEp7VhK_wL-160" value="Generate Populasi&amp;nbsp;&lt;br&gt;&amp;amp; Hitung Elitism&amp;nbsp;" style="whiteSpace=wrap;html=1;" vertex="1" parent="1">
          <mxGeometry x="532.5" y="240" width="120" height="60" as="geometry" />
        </mxCell>
        <mxCell id="aK8CP3hyJWrEp7VhK_wL-190" value="" style="edgeStyle=orthogonalEdgeStyle;rounded=0;orthogonalLoop=1;jettySize=auto;html=1;" edge="1" parent="1" source="aK8CP3hyJWrEp7VhK_wL-162" target="aK8CP3hyJWrEp7VhK_wL-189">
          <mxGeometry relative="1" as="geometry" />
        </mxCell>
        <mxCell id="aK8CP3hyJWrEp7VhK_wL-162" value="g &amp;lt; MAX_ GEN" style="rhombus;whiteSpace=wrap;html=1;" vertex="1" parent="1">
          <mxGeometry x="535" y="374" width="115" height="80" as="geometry" />
        </mxCell>
        <mxCell id="aK8CP3hyJWrEp7VhK_wL-193" value="" style="edgeStyle=orthogonalEdgeStyle;rounded=0;orthogonalLoop=1;jettySize=auto;html=1;" edge="1" parent="1" source="aK8CP3hyJWrEp7VhK_wL-189" target="aK8CP3hyJWrEp7VhK_wL-192">
          <mxGeometry relative="1" as="geometry" />
        </mxCell>
        <mxCell id="aK8CP3hyJWrEp7VhK_wL-189" value="&lt;font style=&quot;font-size: 15px;&quot;&gt;Mutation&lt;/font&gt;" style="whiteSpace=wrap;html=1;" vertex="1" parent="1">
          <mxGeometry x="532.5" y="490" width="120" height="60" as="geometry" />
        </mxCell>
        <mxCell id="aK8CP3hyJWrEp7VhK_wL-192" value="&lt;font style=&quot;font-size: 15px;&quot;&gt;Elitism&lt;/font&gt;" style="whiteSpace=wrap;html=1;" vertex="1" parent="1">
          <mxGeometry x="532.5" y="610" width="120" height="60" as="geometry" />
        </mxCell>
        <mxCell id="aK8CP3hyJWrEp7VhK_wL-200" value="" style="endArrow=classic;html=1;rounded=0;entryX=1;entryY=0.5;entryDx=0;entryDy=0;" edge="1" parent="1" target="aK8CP3hyJWrEp7VhK_wL-162">
          <mxGeometry width="50" height="50" relative="1" as="geometry">
            <mxPoint x="600" y="670" as="sourcePoint" />
            <mxPoint x="600" y="680" as="targetPoint" />
            <Array as="points">
              <mxPoint x="600" y="760" />
              <mxPoint x="800" y="760" />
              <mxPoint x="800" y="414" />
            </Array>
          </mxGeometry>
        </mxCell>
        <mxCell id="aK8CP3hyJWrEp7VhK_wL-201" value="" style="edgeStyle=orthogonalEdgeStyle;rounded=0;orthogonalLoop=1;jettySize=auto;html=1;" edge="1" parent="1" source="aK8CP3hyJWrEp7VhK_wL-202" target="aK8CP3hyJWrEp7VhK_wL-203">
          <mxGeometry relative="1" as="geometry" />
        </mxCell>
        <mxCell id="aK8CP3hyJWrEp7VhK_wL-202" value="&lt;font style=&quot;font-size: 15px;&quot;&gt;Best Individu&lt;/font&gt;" style="shape=parallelogram;perimeter=parallelogramPerimeter;whiteSpace=wrap;html=1;fixedSize=1;" vertex="1" parent="1">
          <mxGeometry x="310" y="384" width="120" height="60" as="geometry" />
        </mxCell>
        <mxCell id="aK8CP3hyJWrEp7VhK_wL-203" value="&lt;font style=&quot;font-size: 15px;&quot;&gt;Finish&lt;/font&gt;" style="ellipse;whiteSpace=wrap;html=1;" vertex="1" parent="1">
          <mxGeometry x="150" y="379" width="100" height="70" as="geometry" />
        </mxCell>
        <mxCell id="aK8CP3hyJWrEp7VhK_wL-205" value="" style="endArrow=classic;html=1;rounded=0;exitX=0;exitY=0.5;exitDx=0;exitDy=0;" edge="1" parent="1" source="aK8CP3hyJWrEp7VhK_wL-162" target="aK8CP3hyJWrEp7VhK_wL-202">
          <mxGeometry width="50" height="50" relative="1" as="geometry">
            <mxPoint x="520" y="414" as="sourcePoint" />
            <mxPoint x="430" y="414" as="targetPoint" />
          </mxGeometry>
        </mxCell>
        <mxCell id="aK8CP3hyJWrEp7VhK_wL-206" style="edgeStyle=orthogonalEdgeStyle;rounded=0;orthogonalLoop=1;jettySize=auto;html=1;exitX=0.5;exitY=1;exitDx=0;exitDy=0;" edge="1" parent="1" source="aK8CP3hyJWrEp7VhK_wL-202" target="aK8CP3hyJWrEp7VhK_wL-202">
          <mxGeometry relative="1" as="geometry" />
        </mxCell>
        <mxCell id="aK8CP3hyJWrEp7VhK_wL-207" value="False" style="text;html=1;align=center;verticalAlign=middle;resizable=0;points=[];autosize=1;strokeColor=none;fillColor=none;" vertex="1" parent="1">
          <mxGeometry x="445" y="428" width="50" height="30" as="geometry" />
        </mxCell>
        <mxCell id="aK8CP3hyJWrEp7VhK_wL-208" value="True" style="text;html=1;align=center;verticalAlign=middle;resizable=0;points=[];autosize=1;strokeColor=none;fillColor=none;" vertex="1" parent="1">
          <mxGeometry x="602.5" y="449" width="50" height="30" as="geometry" />
        </mxCell>
      </root>
    </mxGraphModel>
  </diagram>
</mxfile>
